<svg width="15" height="14" viewBox="0 0 15 14" xmlns="http://www.w3.org/2000/svg"><title>iconfont-guanzhu</title><path d="M.5 4.634v.01c0 .162 0 .238.003.334.004.19.015.352.036.5l.01.083c.008.062.013.094.02.134l.055.298.021.085.004.015c.01.05.019.084.036.15l.016.062c.173.67.466 1.316.898 2.047l.277.435c.202.32.638.89.899 1.175l.21.24c-.001-.002-.001-.002 0 0h.001c.021.029.021.029.07.082l.44.466.087.09c.072.076.12.124.177.173l.636.598.05.042-.002-.002c.048.046.048.046.079.07v.001l-.01-.01.326.284.043.037.038.03.175.146.062.05.005.004.062.051.594.461c.034.028.034.028.076.058l.953.67c.45.307.793.311 1.235.008l.475-.322c.328-.226.631-.452.892-.664l.184-.145.023-.018.001-.002.04-.031c.277-.22.558-.451.67-.565l-.013.013.067-.059.287-.257.01-.01v-.001l.053-.044a5.18 5.18 0 0 0 .19-.181l.006-.007c.101-.1.137-.135.177-.17.09-.08.158-.148.288-.284l.017-.018.094-.097.123-.135a.502.502 0 0 1 .037-.037l.01-.01.067-.069.697-.816.026-.031.001-.002.037-.045.088-.11c.075-.095.13-.168.183-.248l.327-.472c.177-.27.338-.546.496-.844l.198-.407c.213-.488.32-.774.403-1.11l.026-.1.009-.035a3.02 3.02 0 0 0 .062-.277l.01-.056.01-.045.017-.098a5.372 5.372 0 0 0-.173-2.494 5.073 5.073 0 0 0-.35-.813 3.592 3.592 0 0 0-.53-.748l-.274-.27a3.257 3.257 0 0 0-.37-.291c-.047-.032-.047-.032-.09-.058l-.096-.056a2.986 2.986 0 0 0-.866-.357L11.26.543a4.13 4.13 0 0 0-1.714.115L9.506.67l-.091.028a3.31 3.31 0 0 0-.521.195l-.098.046-.048.023c-.037.018-.037.018-.076.04l-.052.027-.046.026-.221.135a4.037 4.037 0 0 0-.412.304l-.42.41-.04.043.003-.004.03-.031-.18.215-.075.104-.007.01-.065.091c-.103.144-.17.253-.2.384l.487.112.38-.325c.004.004-.002-.005-.018-.034l-.008-.014c-.021-.038-.021-.038-.053-.09a2.468 2.468 0 0 0-.098-.141l-.05-.068a2.681 2.681 0 0 0-.078-.101l-.094-.111c.006.006.006.006 0 0l-.003-.004-.022-.025a1.78 1.78 0 0 0-.243-.256 25.841 25.841 0 0 1-.15-.128 3.112 3.112 0 0 0-.56-.41l-.094-.052-.021-.011a3.294 3.294 0 0 0-.777-.34A3.569 3.569 0 0 0 4.948.56C4.42.486 3.97.484 3.51.571a2.56 2.56 0 0 0-.238.058l-.086.025-.048.014c-.196.054-.37.132-.613.26a2.969 2.969 0 0 0-.736.551l-.266.285a7.849 7.849 0 0 0-.153.197 3.571 3.571 0 0 0-.184.267 1.988 1.988 0 0 0-.088.159l-.024.044c0 .003 0 .003-.002.005l-.049.093A4.966 4.966 0 0 0 .5 4.634zm1 0a3.977 3.977 0 0 1 .42-1.664l.03-.059.003-.004.04-.076c.011-.023.026-.05.044-.079.034-.055.077-.116.133-.192l.116-.152.226-.24c.133-.136.303-.263.477-.355.186-.098.306-.151.418-.183l.057-.016.081-.023c.064-.018.107-.03.15-.037.343-.065.686-.063 1.114-.003.136.019.272.054.466.117l.177.06a2.506 2.506 0 0 1 .446.216l.1.055c.106.058.211.138.387.29l.153.131c.035.03.073.071.145.16l.005.005-.002-.002-.002-.003.092.109c.02.027.029.037.045.06l.05.068c.028.037.046.062.062.087l.023.04.007.013c.048.085.079.134.13.195l.646.756.222-.968c-.013.057.031-.014.038-.024l.069-.097.007-.01.05-.07.13-.158c-.012.014-.012.014-.003.003l.004-.005c.005-.005.005-.005 0 .001l.352-.342a3.31 3.31 0 0 1 .275-.2l.187-.115.044-.024.027-.015.046-.023.038-.018.108-.052c.094-.046.199-.084.374-.137l.088-.027.04-.012a3.13 3.13 0 0 1 1.25-.087l.335.067c.11.023.357.118.444.171a4.623 4.623 0 0 0 .2.117l.048.03c.091.062.173.126.245.19l.254.252c.092.093.271.349.344.492.157.311.22.451.292.672.2.614.248 1.341.136 2.021l-.012.068-.01.048-.014.08c-.008.048-.02.1-.044.19l-.008.033-.03.116c-.066.266-.157.51-.34.93l-.181.372a9.343 9.343 0 0 1-.435.738l-.325.47c-.04.06-.08.113-.14.189l-.086.109-.019.022-.002.003-.036.044-.67.784c.005-.006.005-.006-.013.011l-.01.01c-.036.035-.061.06-.09.093l-.102.112-.09.093-.017.018a3.776 3.776 0 0 1-.229.227c-.058.052-.1.092-.216.207l-.006.006a4.462 4.462 0 0 1-.156.15l-.007.005-.004.004c-.034.028-.034.028-.079.071l-.273.244-.008.007c-.028.023-.028.023-.074.066-.072.072-.348.301-.58.486l-.026.02-.004.002-.046.037-.178.14a13.48 13.48 0 0 1-.831.619l-.473.32c-.1.07.004.07-.103-.002l-.939-.66-.042-.034-.586-.454-.058-.048-.005-.004-.057-.046-.178-.148-.04-.033-.013-.01-.312-.272c-.028-.025-.028-.025-.05-.041l.02.018c-.03-.03-.03-.03-.06-.056l-.005-.005-.028-.023-.635-.597a1.662 1.662 0 0 1-.12-.118l-.092-.095-.44-.465a.225.225 0 0 1 .011.012c-.02-.026-.02-.026-.065-.077l-.202-.231a9.843 9.843 0 0 1-.8-1.044l-.27-.422c-.378-.643-.634-1.207-.78-1.774l-.018-.068a1.51 1.51 0 0 1-.023-.093c-.012-.055-.012-.055-.021-.085l-.004-.016-.05-.27a3.34 3.34 0 0 1-.012-.087l-.013-.097a3.323 3.323 0 0 1-.027-.384 12.713 12.713 0 0 1-.002-.311v-.01z" fill="#FF8733" fill-rule="evenodd"/></svg>