<svg width="13" height="13" viewBox="0 0 13 13" xmlns="http://www.w3.org/2000/svg"><title>iconfont-guanzhu</title><path d="M0 3.634c0 .252 0 .533.034.775.01.07.017.138.028.205l.053.287c.007.031.018.062.024.093.015.07.03.123.046.186.177.684.49 1.316.845 1.918l.268.42c.192.304.612.85.846 1.106l.217.247c.023.025.028.04.052.064l.447.471c.073.075.148.161.226.228l.653.612c.027.024.035.029.061.055.023.023.035.027.057.05l.31.268c.02.019.044.036.064.052l.184.154.128.104.581.451.066.05.945.665c.272.185.391.191.664.004l.477-.324c.286-.197.589-.419.857-.638l.19-.149c.023-.02.039-.03.064-.05.116-.092.51-.409.624-.525.024-.024.038-.03.062-.054l.3-.27c.025-.026.037-.031.062-.054.12-.106.263-.26.378-.361.131-.117.25-.25.373-.375l.11-.122c.037-.042.078-.075.115-.116l.686-.804c.019-.024.033-.038.052-.063.086-.109.17-.21.246-.325l.333-.48a9.86 9.86 0 0 0 .465-.793l.19-.391c.143-.329.28-.659.367-1.01.031-.126.069-.25.09-.377.012-.072.025-.128.036-.196a4.876 4.876 0 0 0-.154-2.258 4.79 4.79 0 0 0-.321-.743 3.13 3.13 0 0 0-.44-.623l-.269-.265a2.759 2.759 0 0 0-.3-.234c-.088-.06-.176-.104-.267-.16a2.528 2.528 0 0 0-.608-.235l-.355-.07A3.624 3.624 0 0 0 8.69.137c-.194.059-.394.115-.576.205-.074.036-.14.065-.21.101l-.096.054-.193.119c-.126.08-.242.17-.358.265l-.386.38-.004.004-.144.177c-.046.062-.084.119-.13.183a.968.968 0 0 0-.119.203c-.047-.056-.08-.13-.12-.193-.042-.065-.084-.12-.13-.182a2.327 2.327 0 0 0-.066-.086l-.085-.102-.004-.004a1.761 1.761 0 0 0-.207-.222C5.666.873 5.466.685 5.238.56 5.033.45 4.834.33 4.612.254 4.37.172 4.136.092 3.879.056c-.433-.061-.843-.075-1.277.006-.115.022-.218.056-.33.087-.179.05-.353.136-.516.221a2.469 2.469 0 0 0-.61.458l-.258.277c-.115.15-.258.332-.343.504-.025.05-.048.088-.074.14a4.485 4.485 0 0 0-.3.765C.073 2.865 0 3.247 0 3.634z" fill="#FFF" fill-rule="evenodd"/></svg>